<svg id="emvkpzRc9t11" xmlns="http://www.w3.org/2000/svg" xmlns:xlink="http://www.w3.org/1999/xlink" viewBox="0 0 92 92" shape-rendering="geometricPrecision" text-rendering="geometricPrecision"><ellipse rx="45.9435" ry="45.9434" transform="translate(45.9435 46.0566)" fill="#3fb1a6" stroke-width="0"/><g clip-path="url(#emvkpzRc9t16)"><g><path d="M58.86933,27.440954L32.672071,1.245978c-.724235-.725224-1.707108-1.132735-2.732037-1.132735s-2.007802.407511-2.732037,1.132735l-5.440567,5.4405l6.899308,6.899223c1.654683-.561947,3.484914-.135658,4.720992,1.099592c1.24287,1.244637,1.666938,3.08917,1.092423,4.751623l6.64922,6.64979c1.662392-.577714,3.508755-.153548,4.752334,1.091757.862278.862105,1.346715,2.031468,1.346715,3.250784s-.484436,2.388679-1.346715,3.250784c-1.796327,1.795535-4.707933,1.795535-6.50426,0-1.313038-1.312184-1.707697-3.285453-1.000354-5.001708l-6.203239-6.201204v16.322153c1.328347.65617,2.259006,1.912336,2.499846,3.37419s-.237667,2.950175-1.285317,3.997779c-.862116.862268-2.031493,1.346698-3.250824,1.346698s-2.388708-.48443-3.250824-1.346698c-.862478-.862132-1.347041-2.031634-1.347041-3.25111s.484563-2.388978,1.347041-3.25111c.430665-.431689.942979-.773302,1.507061-1.004912v-16.472335c-.564134-.230323-1.076528-.5711-1.507061-1.0023-1.318662-1.320332-1.709645-3.306173-.989906-5.027827L19.09416,9.359062L1.132191,27.318197c-.725032.724731-1.132375,1.707852-1.132375,2.732983s.407343,2.008252,1.132375,2.732983L27.330102,58.982404c1.5093,1.507788,3.954775,1.507788,5.464074,0L58.86933,32.90692c1.507312-1.510251,1.507312-3.955715,0-5.465966" transform="translate(15.9437 15.9434)" fill="#fff"/></g><clipPath id="emvkpzRc9t16"><path d="M0,0.113h91.887v91.887L0,92Zm0,0"/></clipPath></g></svg>
