<svg id="ecIHnB6v3jb1" xmlns="http://www.w3.org/2000/svg" xmlns:xlink="http://www.w3.org/1999/xlink" viewBox="0 0 32 32" shape-rendering="geometricPrecision" text-rendering="geometricPrecision"><ellipse rx="16" ry="16" transform="translate(16 16)" stroke-width="0"/><path d="M7.257158,5l-.111732.581218-.357541,2.056617-.156424.849472h10.100557L16.508554,9.78387h-10.100559l-.111732.581218-.357542,2.056617-.156424.827117h10.100558l-.513966,2.90609-3.731844,1.721299-2.927374-1.609526.156425-.871827.156425-.827118h-3.486035l-.089386.581219-.491619,2.727252-.111732.53651.49162.245899l5.586592,2.727254.290502.134127.290503-.111772l6.547486-2.749608.357541-.134127.089386-.402381L20.687325,5.849473L20.84375,5ZM8.441515,6.43069h10.681564L17.156599,17.496184l-5.921788,2.436644-4.782123-2.324872.290502-1.609526h.55866L7.12308,17.02674l.446927.245899l3.687151,2.034263.312849.178836.335196-.156481l4.402235-2.034263.335196-.156481.067038-.380028.737429-4.090879.156426-.849472h-10.100559l.089386-.603572h10.122905l.089386-.603573.49162-2.727253.156425-.827118h-10.100559Z" transform="translate(3.15625 2.74)" fill="#fff"/></svg>
