<svg id="eaRkSzwQ54V1" xmlns="http://www.w3.org/2000/svg" xmlns:xlink="http://www.w3.org/1999/xlink" viewBox="0 0 1000 1000" shape-rendering="geometricPrecision" text-rendering="geometricPrecision"><ellipse rx="500" ry="500" transform="translate(500 500)" stroke-width="0"/><g><path d="M67.9,10l45.475584,510.3L317.552858,577l204.697987-56.757857L567.9,10h-500v0ZM483.313099,487.726429L318.767855,533.317857v.289286l-.404999-.115714-.462856.115714v-.289286L153.354756,487.726429L114.41701,51.715h407.775978L483.313099,487.726429v0ZM394.734066,303.567143l-7.232122,81.173571-69.891229,18.861429-69.717658-18.803572L243.43807,334.81h-62.832678l8.794261,98.299286L317.9,468.691429l128.095348-35.524286l17.125666-192.143572h-228.072206l-5.727841-64.105714h239.527887l5.612127-62.601428h-313.526961l16.894237,189.250714h216.905809Z" transform="translate(182.1 206.5)" fill="#fff"/></g></svg>
