<svg id="epQDsCUFcYm1" xmlns="http://www.w3.org/2000/svg" xmlns:xlink="http://www.w3.org/1999/xlink" viewBox="0 0 512 512" shape-rendering="geometricPrecision" text-rendering="geometricPrecision"><ellipse rx="256" ry="256" transform="translate(256 256)" stroke-width="0"/><path d="M262.652223,128.876743v0q-4.79355-1.63742-9.655848-3.049851.806217-3.28109,1.487438-6.599677c7.312195-35.560762,2.531145-64.209361-13.786925-73.64015-15.624349-9.049558-41.248282.381231-67.097205,22.930129q-3.812341,3.337337-7.468438,6.874664-2.437399-2.349885-4.999792-4.599775c-27.092621-24.111322-54.24774-34.267075-70.547061-24.805038-15.624349,9.068307-20.267905,35.99824-13.686929,69.702842q.987458,4.999756,2.218657,9.955764c-3.84359,1.093696-7.555935,2.262389-11.105787,3.499829C36.286655,140.238687,16,157.631587,16,175.668205c0,18.636589,21.774093,37.323175,54.853964,48.653871q4.024833,1.368683,8.124662,2.543626-1.331195,5.30599-2.356152,10.730725c-6.24974,33.123381-1.374943,59.415845,14.218158,68.427905c16.105579,9.305795,43.123203-.256238,69.459605-23.31761q3.12487-2.737367,6.24974-5.780968q3.949836,3.818564,8.124662,7.412138c25.498937,21.986425,50.679138,30.867241,66.247239,21.830183c16.09308-9.337044,21.324112-37.585663,14.530645-71.952733q-.781218-3.937307-1.799925-8.037107q2.849881-.843708,5.581017-1.743664C293.607183,213.016379,316,194.554782,316,175.686954c-.012499-18.124114-20.949127-35.629508-53.347777-46.810211ZM182.030582,78.20422c22.142827-19.317805,42.841965-26.942432,52.279072-21.492699v0c10.043331,5.805966,13.949419,29.217322,7.637182,59.92207q-.624974,2.999854-1.349944,5.980958c-13.214296-3.005658-26.614291-5.126926-40.110829-6.34969-7.727608-11.131481-16.198638-21.728022-25.355193-31.717199q3.362359-3.26234,6.887213-6.34344ZM104.577559,191.079951q4.068581,7.874615,8.505896,15.55549q4.518562,7.837117,9.418357,15.442995c-9.286677-1.009653-18.515185-2.496967-27.648848-4.456032c2.64989-8.574581,5.912254-17.480396,9.724595-26.542453Zm0-30.204773c-3.749843-8.868316-6.924711-17.59289-9.530853-26.017478c8.562144-1.918656,17.686763-3.487329,27.198867-4.674771q-4.781051,7.462135-9.199617,15.143009t-8.487146,15.54924Zm6.812216,15.105512q5.924754-12.355646,12.761969-24.236315v0q6.830965-11.87442,14.543144-23.205116c8.924628-.674967,18.074247-1.031199,27.317611-1.031199s18.449232.356232,27.36761,1.037449q7.630932,11.305697,14.455648,23.123869t12.930711,24.123821q-6.024749,12.399394-12.899462,24.33631v0q-6.818466,11.874419-14.374402,23.273862c-8.905878.62497-18.124244.968703-27.498854.968703s-18.417982-.293736-27.161368-.862458q-7.768426-11.368194-14.661889-23.305111t-12.799467-24.223815Zm107.570518,30.567255q4.531062-7.862115,8.699638-15.930471v0c3.809549,8.637632,7.172187,17.465535,10.07458,26.448707-9.241073,2.080874-18.584711,3.676729-27.992584,4.781016q4.762302-7.55588,9.218366-15.299252Zm8.574643-45.666517q-4.149827-7.905864-8.63089-15.624236v0q-4.374818-7.612128-9.11837-15.036765c9.568351,1.212441,18.749218,2.824862,27.35511,4.793516-2.766937,8.777849-5.972924,17.411215-9.60585,25.867485ZM166.137494,93.728461v0c6.240665,6.819044,12.133326,13.948591,17.655515,21.361456q-17.718012-.843709-35.461023,0c5.831007-7.712123,11.799509-14.868023,17.805508-21.361456ZM97.034124,57.092752c10.037081-5.824715,32.229907,2.499878,55.622682,23.292612c1.493688,1.331185,2.999875,2.724866,4.499812,4.168546-9.203604,9.987752-17.734481,20.575065-25.536436,31.6922-13.466623,1.213343-26.840108,3.300978-40.035831,6.249695q-1.143703-4.599775-2.062414-9.262047v0c-5.656015-28.892338-1.912421-50.672523,7.512187-56.141006ZM82.403483,214.491307q-3.749844-1.068698-7.405941-2.318637C60.373151,207.172915,48.292404,200.648234,39.999,193.542331c-7.424691-6.368439-11.187034-12.724378-11.187034-17.874126c0-10.943215,16.286822-24.905032,43.44819-34.373319q5.118537-1.781163,10.32457-3.256091c4.033892,12.963694,8.919314,25.64691,14.62439,37.966893-5.773075,12.490308-10.718946,25.346557-14.805633,38.485619Zm69.453356,58.540888c-11.643265,10.199501-23.305279,17.430397-33.5861,21.073969v0c-9.237115,3.26859-16.593059,3.362336-21.036624.793711-9.462106-5.468482-13.399441-26.5862-8.030915-54.909815q.95621-4.999755,2.187409-9.999511c13.327803,2.87096,26.835528,4.831643,40.429565,5.868463c7.878128,11.175065,16.479501,21.822319,25.748927,31.873442-1.862422,1.83116-3.768593,3.593574-5.712262,5.299741Zm14.63689-14.511791c-6.074746-6.568429-12.136994-13.836823-18.049248-21.648941q8.618391.337483,17.549269.337483c6.112246,0,12.161994-.131243,18.124245-.39998-5.502155,7.531806-11.384537,14.778348-17.624266,21.711438Zm77.821758,17.867877c-1.787426,9.649528-5.381026,16.086713-9.824591,18.661587-9.455856,5.487232-29.673763-1.64367-51.472855-20.449-2.499896-2.149895-4.999792-4.456032-7.543436-6.874664c9.088916-10.090317,17.488778-20.780593,25.142703-31.998435c13.669292-1.15813,27.24254-3.256748,40.623307-6.280943q.918712,3.712318,1.624932,7.274644v0c3.006125,15.186757,3.437357,28.923586,1.44994,39.666811Zm10.874547-64.146864v0c-1.637432.543723-3.324862,1.068698-5.03729,1.581173-4.195739-13.024732-9.271807-25.749262-15.193117-38.085638c5.699197-12.171843,10.57658-24.711807,14.599391-37.535665c3.068623.893706,6.049748,1.83116,8.918379,2.824862c27.761343,9.574532,44.698137,23.748839,44.698137,34.642056c0,11.624432-18.292987,26.711194-47.9855,36.573212Z" transform="translate(90 80.067444)" fill="#fff"/><path d="M233.074716,252.549072c8.095051.026356,15.407676-4.829689,18.523797-12.300972s1.42113-16.084204-4.293624-21.817611-14.322123-7.456473-21.803545-4.36474-12.361301,10.388465-12.361344,18.483539c-.011112,5.296392,2.083498,10.380002,5.822518,14.131227s8.815785,5.862397,14.112198,5.868557Z" transform="translate(22.860016 23.450928)" fill="#fff"/></svg>
