<svg id="e74skwPvFy31" xmlns="http://www.w3.org/2000/svg" xmlns:xlink="http://www.w3.org/1999/xlink" viewBox="0 0 512 512" shape-rendering="geometricPrecision" text-rendering="geometricPrecision"><ellipse rx="256" ry="256" transform="translate(256 256)" stroke-width="0"/><path d="M350.08034,249.680478v0c-1.005342-8.152355-5.136133-15.224112-12.310305-21.044291-.08921-.108562-.1876-.209242-.294079-.300926v0l-.36247-.25989-.116264-.082071-3.809356-2.735689-.129942-.095749-.485573-.341962v0c-.178114-.103908-.368908-.184365-.567642-.239372-12.05042-7.174346-31.999952-12.201175-62.522668-1.429398-7.283596-12.255889-8.111122-22.077013-3.234874-37.123305.86856-2.619423.061551-4.349746-2.537291-5.471379-5.22504-2.222747-12.378694-1.087436-17.453276.253051-2.366314.615531-3.788838,1.956018-4.240215,3.987268-3.214358,15.046291-12.556511,28.793131-21.590906,42.061224l-.533447.779671c-5.566993-11.804499-4.411192-20.948541-.533447-32.40424.772814-2.284301.164138-3.802608-1.976487-4.93792-5.977337-3.084489-14.943342-.96433-18.51333.08891-4.527457,1.31997-9.383188,13.555341-14.806561,28.204958-1.367811,3.686341-2.544129,6.839223-3.248552,8.309656-1.675569,3.419612-3.275909,7.317969-4.971995,11.4557-3.829873,9.362897-8.145318,19.90214-14.314149,26.522508-2.243211-4.958437,1.285743-12.775669,4.712111-20.360368c4.055562-8.966222,7.885434-17.44002,3.474242-22.849846-1.409976-1.728741-3.471645-2.797964-5.696936-2.954544-1.436426-.109342-2.878235.125104-4.20602.683922.458217-3.864161.478734-6.914455-.649711-10.600796-1.614017-5.259363-5.80636-8.207068-11.578525-8.049766-13.144669.382996-24.264978,10.176764-31.28869,18.329119-4.677916,5.471378-15.045928,9.643305-24.148714,13.302289-3.597344,1.525147-7.016873,2.892992-9.868761,4.260837-4.547973-3.843644-10.326977-7.721484-16.413739-11.818179-17.097645-11.476217-36.472696-24.491259-37.142924-42.136455-.957468-26.064281,28.724044-44.550702,54.630396-57.743564c19.634935-9.985266,36.705224-16.605634,52.188851-20.223584c21.748204-5.081543,40.117914-4.055659,54.589361,3.036616c7.919629,3.877839,11.626398,12.310602,9.273762,20.982737-6.155152,22.535241-31.657999,37.978208-53.467755,44.926859-13.13783,4.185605-24.31969,5.936446-34.19529,5.361951-12.378695-.718118-22.486822-6.928133-26.809107-9.574913-.692491-.472929-1.424741-.88483-2.188499-1.23106l-.198332-.047874c-.797912-.19859-1.639901.065363-2.18166.683922-.889077,1.06008-.574481,2.735689-.253045,3.583753c4.206021,10.990632,12.891624,17.932444,25.810605,20.633937c4.228055.846683,8.531881,1.256909,12.843751,1.224221c30.235475,0,68.814601-17.43318,82.985129-31.78871c9.663589-9.78009,16.70098-19.833749,19.614418-37.17118c3.043381-18.158138-9.266923-30.776506-21.809755-36.589845-30.481682-14.068283-65.100993-8.507994-88.777812-1.367845-27.698185,8.350692-56.353838,23.533768-78.608132,41.671388-27.438301,22.343743-37.354935,43.087108-29.490018,61.723992c8.076927,19.101951,27.773414,31.050075,46.820191,42.608362c6.155152,3.727377,12.009385,7.276934,17.282299,10.942758-1.586661.772832-3.207518,1.559343-4.855731,2.345853-15.989718,7.748841-34.126899,16.46885-44.187154,30.879094-7.304114,10.498208-8.671925,20.948542-4.0624,31.063753c2.462061,5.382469,6.839058,9.034614,12.91898,10.853848c3.162734.896085,6.43815,1.331436,9.725141,1.292613c11.838409,0,24.866815-4.787456,31.958918-9.212434c12.529154-7.865107,20.647116-18.424868,24.135035-31.385196c3.104933-11.530931,2.359475-22.98663-2.154303-33.211269l15.353685-7.742001c-7.4067,24.621204-1.730281,39.325534,4.506939,47.436853c2.297924,2.988741,6.442393,4.787457,11.072435,4.869528s8.890776-1.661932,11.298124-4.630155c4.554813-5.642359,7.919629-12.24221,11.017723-18.84206-.164138,4.30871.041034,8.672135,1.511431,12.372155c1.319939,3.330702,3.494759,5.539771,6.298773,6.387835c2.981829.909616,6.476588.143623,9.841404-2.154356c15.162192-10.375102,25.530204-35.276714,33.860176-55.295121c1.183157-2.845117,2.318441-5.580807,3.419529-8.138676c2.060868,7.37553,4.927758,14.501646,8.548823,21.249467.807008,1.463594.738618,2.106481-.355631,3.310184-1.648213,1.805555-3.946137,3.987267-6.380841,6.298925-7.372505,6.996525-16.550521,15.730214-17.781551,23.410662-.478734,3.07765,1.641374,5.881732,4.930961,6.51778c9.896116,1.969696,21.816595-.909617,31.897366-7.694127c9.164338-6.155301,12.611223-14.738526,10.258587-25.435072-2.277406-10.29987,2.920278-23.089218,15.449432-38.039761c2.051717,8.569547,4.78734,15.497681,8.5625,21.564072l-.102585.082071c-9.123304,7.967695-21.625102,18.876256-19.682809,32.110154.329465,2.544808,1.714565,4.833506,3.816194,6.305764c2.245521,1.51615,5.021719,2.026785,7.659745,1.40888c11.947834-2.509995,20.941196-7.564181,27.479335-15.436127s4.151308-16.598796,1.949131-23.369627c17.097645-4.636994,32.321388-4.520727,46.573985.341961c8.001698,2.73569,13.739668,7.229059,17.049772,13.432235c4.164986,7.803554,1.914936,15.005256-6.353485,20.278298-2.537291,1.620896-3.761482,2.612583-3.836712,3.864161-.034054.589434.221131,1.158512.683906,1.525147.957468.78651,3.911941,2.154355,10.593701-2.051767c6.155152-3.864162,9.766175-9.123524,10.689448-15.730214.185742-1.821468.183451-3.65722-.006839-5.478218ZM76.702675,266.819572l-.06839.87542c-1.066893,10.012623-6.155153,18.739473-15.148514,25.989049-5.649062,4.554923-11.783697,7.352166-17.268621,7.885625-3.829873.369318-6.613369-.150463-8.268421-1.552504-1.23787-1.046401-1.901258-2.612583-2.051718-4.787456-1.121605-17.426341,26.207271-34.743255,41.588312-40.440328c1.097696,3.909626,1.509574,7.979913,1.217352,12.030194Zm69.997759-49.14666v0c-2.530452,14.423922-9.909795,41.650871-21.508838,52.217471-.553963.506103-1.019019.683922-1.23103.636048s-.376148-.300926-.547125-.683923c-3.870907-8.973061-2.441544-24.12878,3.419529-36.035868c4.506939-9.178238,10.942493-15.258307,18.137182-17.098059.298654-.082375.606652-.126048.916434-.129945.242241-.017045.483162.048005.683905.184659.171216.270738.218505.601766.129943.909617Zm57.099295,52.57995c-2.18166,2.277461-5.170328,1.969696-4.465905,1.135311l11.10663-11.790821c-.895917,4.055659-3.542632,7.413718-6.640725,10.65551Zm46.074733-10.197282c-1.056253.520519-2.199072.842741-3.371655.950652-.314597-6.203176,5.696935-13.186023,11.626398-17.843534c1.593501,6.469905-1.66873,13.309129-8.254743,16.892882Z" transform="translate(80.775282 55.587182)" fill="#fff"/></svg>
